<mxfile host="app.diagrams.net" modified="2023-09-20T09:53:59.394Z" agent="Mozilla/5.0 (Windows NT 10.0; Win64; x64) AppleWebKit/537.36 (KHTML, like Gecko) Chrome/117.0.0.0 Safari/537.36 Edg/117.0.2045.31" etag="M4wcHD48rwQBJp7QQxJb" version="21.7.5" type="device">
  <diagram name="Page-1" id="4cBS80q6ClL36z-4rHW1">
    <mxGraphModel dx="872" dy="455" grid="1" gridSize="10" guides="1" tooltips="1" connect="1" arrows="1" fold="1" page="1" pageScale="1" pageWidth="850" pageHeight="1100" math="0" shadow="0">
      <root>
        <mxCell id="0" />
        <mxCell id="1" parent="0" />
        <mxCell id="7m7Xx356KaLH0eYcJv8N-1" value="main" style="text;html=1;align=center;verticalAlign=middle;resizable=0;points=[];autosize=1;strokeColor=none;fillColor=none;" vertex="1" parent="1">
          <mxGeometry x="425" y="65" width="50" height="30" as="geometry" />
        </mxCell>
        <mxCell id="7m7Xx356KaLH0eYcJv8N-3" value="main" style="strokeWidth=2;html=1;shape=mxgraph.flowchart.terminator;whiteSpace=wrap;" vertex="1" parent="1">
          <mxGeometry x="390" y="65" width="100" height="60" as="geometry" />
        </mxCell>
        <mxCell id="7m7Xx356KaLH0eYcJv8N-7" value="" style="endArrow=classic;html=1;rounded=0;" edge="1" parent="1" source="7m7Xx356KaLH0eYcJv8N-3">
          <mxGeometry width="50" height="50" relative="1" as="geometry">
            <mxPoint x="440" y="300" as="sourcePoint" />
            <mxPoint x="439.5" y="200" as="targetPoint" />
          </mxGeometry>
        </mxCell>
        <mxCell id="7m7Xx356KaLH0eYcJv8N-9" value="Read value2" style="shape=internalStorage;whiteSpace=wrap;html=1;dx=15;dy=15;rounded=1;arcSize=8;strokeWidth=2;" vertex="1" parent="1">
          <mxGeometry x="335" y="300" width="210" height="60" as="geometry" />
        </mxCell>
        <mxCell id="7m7Xx356KaLH0eYcJv8N-12" value="" style="endArrow=classic;html=1;rounded=0;" edge="1" parent="1">
          <mxGeometry width="50" height="50" relative="1" as="geometry">
            <mxPoint x="440" y="240" as="sourcePoint" />
            <mxPoint x="440" y="300" as="targetPoint" />
            <Array as="points" />
          </mxGeometry>
        </mxCell>
        <mxCell id="7m7Xx356KaLH0eYcJv8N-15" value="Read value1" style="shape=internalStorage;whiteSpace=wrap;html=1;dx=15;dy=15;rounded=1;arcSize=8;strokeWidth=2;" vertex="1" parent="1">
          <mxGeometry x="340" y="200" width="200" height="60" as="geometry" />
        </mxCell>
        <mxCell id="7m7Xx356KaLH0eYcJv8N-21" value="" style="edgeStyle=orthogonalEdgeStyle;rounded=0;orthogonalLoop=1;jettySize=auto;html=1;" edge="1" parent="1" source="7m7Xx356KaLH0eYcJv8N-17" target="7m7Xx356KaLH0eYcJv8N-9">
          <mxGeometry relative="1" as="geometry" />
        </mxCell>
        <mxCell id="7m7Xx356KaLH0eYcJv8N-17" value="input value1" style="shape=parallelogram;html=1;strokeWidth=2;perimeter=parallelogramPerimeter;whiteSpace=wrap;rounded=1;arcSize=12;size=0.23;" vertex="1" parent="1">
          <mxGeometry x="470" y="450" width="190" height="30" as="geometry" />
        </mxCell>
        <mxCell id="7m7Xx356KaLH0eYcJv8N-18" value="input value2" style="shape=parallelogram;html=1;strokeWidth=2;perimeter=parallelogramPerimeter;whiteSpace=wrap;rounded=1;arcSize=12;size=0.1764705882352941;" vertex="1" parent="1">
          <mxGeometry x="375" y="510" width="165" height="40" as="geometry" />
        </mxCell>
        <mxCell id="7m7Xx356KaLH0eYcJv8N-19" value="" style="endArrow=classic;html=1;rounded=0;entryX=0.468;entryY=-0.075;entryDx=0;entryDy=0;entryPerimeter=0;" edge="1" parent="1" source="7m7Xx356KaLH0eYcJv8N-9" target="7m7Xx356KaLH0eYcJv8N-17">
          <mxGeometry width="50" height="50" relative="1" as="geometry">
            <mxPoint x="420" y="410" as="sourcePoint" />
            <mxPoint x="440" y="410" as="targetPoint" />
          </mxGeometry>
        </mxCell>
      </root>
    </mxGraphModel>
  </diagram>
</mxfile>
